<mxfile host="app.diagrams.net" modified="2022-08-01T09:55:02.234Z" agent="5.0 (Macintosh; Intel Mac OS X 10_15_7) AppleWebKit/537.36 (KHTML, like Gecko) Chrome/103.0.0.0 Safari/537.36" etag="m-A280VlGxfoNXp3v8H9" version="20.2.2" type="github">
  <diagram id="3H_XuG2UUObJ1RigQjw4" name="第 1 页">
    <mxGraphModel dx="1042" dy="674" grid="1" gridSize="10" guides="1" tooltips="1" connect="1" arrows="1" fold="1" page="1" pageScale="1" pageWidth="827" pageHeight="1169" math="0" shadow="0">
      <root>
        <mxCell id="0" />
        <mxCell id="1" parent="0" />
        <mxCell id="4Q77MxbposZiaLhzp9AE-1" value="" style="rounded=0;whiteSpace=wrap;html=1;fillColor=#ffe6cc;strokeColor=#d79b00;" vertex="1" parent="1">
          <mxGeometry x="70" y="30" width="120" height="60" as="geometry" />
        </mxCell>
        <mxCell id="4Q77MxbposZiaLhzp9AE-2" value="" style="swimlane;startSize=0;" vertex="1" parent="1">
          <mxGeometry x="370" y="160" width="90" height="70" as="geometry" />
        </mxCell>
        <mxCell id="4Q77MxbposZiaLhzp9AE-3" value="s131" style="whiteSpace=wrap;html=1;" vertex="1" parent="1">
          <mxGeometry x="350" y="170" width="120" height="60" as="geometry" />
        </mxCell>
      </root>
    </mxGraphModel>
  </diagram>
</mxfile>
